# xmcd
#
# Track frame offsets: 
#        150
#        18500
#        45545
#        63360
#
# Disc length: 1184 seconds
#
# Revision: 1
# Processed by: cddbd v1.5.2PL0 Copyright (c) Steve Scherf et al.
# Submitted via: ExactAudioCopy v1.0b3
#
DISCID=2b049e04
DTITLE=Sandra - Maria Magdalena cdm2
DYEAR=1993
DGENRE=Dance
TTITLE0=Maria Magdalena (Radio edit)
TTITLE1=Maria Magdalena (Clubmix)
TTITLE2=Maria Magdalena (Original version)
TTITLE3=Maria Magdalena (Vega Sicilia mix)
EXTD=
EXTT0=
EXTT1=
EXTT2=
EXTT3=
PLAYORDER=
